<?xml version="1.0" standalone="no"?>
<!DOCTYPE svg PUBLIC "-//W3C//DTD SVG 1.1//EN" "http://www.w3.org/Graphics/SVG/1.1/DTD/svg11.dtd" >
<!--
2013-9-30: Created.
-->
<svg>
<metadata>
Created by iconfont
</metadata>
<defs>

<font id="iconfont" horiz-adv-x="1024" >
  <font-face
    font-family="iconfont"
    font-weight="500"
    font-stretch="normal"
    units-per-em="1024"
    ascent="896"
    descent="-128"
  />
    <missing-glyph />
    
    <glyph glyph-name="x" unicode="x" horiz-adv-x="1001"
d="M281 543q-27 -1 -53 -1h-83q-18 0 -36.5 -6t-32.5 -18.5t-23 -32t-9 -45.5v-76h912v41q0 16 -0.5 30t-0.5 18q0 13 -5 29t-17 29.5t-31.5 22.5t-49.5 9h-133v-97h-438v97zM955 310v-52q0 -23 0.5 -52t0.5 -58t-10.5 -47.5t-26 -30t-33 -16t-31.5 -4.5q-14 -1 -29.5 -0.5
t-29.5 0.5h-32l-45 128h-439l-44 -128h-29h-34q-20 0 -45 1q-25 0 -41 9.5t-25.5 23t-13.5 29.5t-4 30v167h911zM163 247q-12 0 -21 -8.5t-9 -21.5t9 -21.5t21 -8.5q13 0 22 8.5t9 21.5t-9 21.5t-22 8.5zM316 123q-8 -26 -14 -48q-5 -19 -10.5 -37t-7.5 -25t-3 -15t1 -14.5
t9.5 -10.5t21.5 -4h37h67h81h80h64h36q23 0 34 12t2 38q-5 13 -9.5 30.5t-9.5 34.5q-5 19 -11 39h-368zM336 498v228q0 11 2.5 23t10 21.5t20.5 15.5t34 6h188q31 0 51.5 -14.5t20.5 -52.5v-227h-327z" />
    

    
    <glyph glyph-name="colorpallette" unicode="&#58995;" d="M619.424 719.856c55.968 0 107.712-10.096 155.216-30.288 47.536-20.224 88.56-47.184 123.024-81.04 34.48-33.856 61.52-72.928 81.04-117.152 19.552-44.272 29.28-90.512 29.28-138.672 0-45.584-9.728-91.104-29.28-136.672-19.536-45.6-50.784-88.528-93.712-128.896-27.36-26.016-57.936-51.424-91.792-76.144-33.84-24.736-68.336-46.88-103.472-66.416-35.168-19.52-70.32-35.136-105.472-46.864-35.136-11.696-67.68-17.584-97.632-17.584-42.976 0-78.112 14-105.456 41.968-27.344 28.032-40.992 77.136-40.992 147.456 0 11.712 0.64 24.736 1.936 39.072s1.968 28.64 1.968 42.96c0 24.752-5.856 43.296-17.584 55.632-11.696 12.384-25.376 18.56-40.992 18.56-20.848 0-38.72-9.44-53.696-28.336-14.976-18.88-29.632-39.376-43.952-61.488-14.32-22.176-28.96-42.672-43.92-61.536-14.976-18.864-32.896-28.336-53.712-28.336-16.928 0-33.52 13.68-49.808 41.024C24.144 114.448 16 159.376 16 221.872c0 70.304 16.944 135.696 50.768 196.24 33.84 60.528 78.768 112.928 134.736 157.184 56 44.24 120.4 79.072 193.328 104.464C467.712 705.216 542.576 718.56 619.424 719.856zM234.688 305.856c18.224 0 33.52 6.512 45.888 19.536 12.368 12.992 18.544 28 18.544 44.928 0 18.208-6.176 33.504-18.544 45.888-12.368 12.368-27.664 18.528-45.888 18.528-16.944 0-31.568-6.16-43.952-18.528-12.368-12.384-18.544-27.664-18.544-45.888 0-16.944 6.208-31.936 18.544-44.928C203.152 312.368 217.776 305.856 234.688 305.856zM390.912 434.736c22.112 0 41.344 8.128 57.616 24.416 16.272 16.288 24.4 35.44 24.4 57.6 0 23.44-8.144 42.976-24.4 58.592-16.288 15.648-35.488 23.44-57.616 23.44-23.44 0-42.96-7.792-58.592-23.44-15.616-15.616-23.44-35.152-23.44-58.592 0-22.16 7.808-41.344 23.44-57.6C347.968 442.864 367.488 434.736 390.912 434.736zM523.712-18.304c22.144 0 41.008 6.848 56.64 20.496 15.616 13.664 23.424 31.584 23.424 53.712 0 22.128-7.792 40.336-23.424 54.672-15.648 14.336-34.496 21.472-56.64 21.472-20.816 0-38.72-7.12-53.696-21.472-14.976-14.336-22.464-32.576-22.464-54.672 0-22.144 7.488-40.016 22.464-53.712C484.992-11.488 502.896-18.304 523.712-18.304zM611.6 505.04c20.832 0 36.128 6.496 45.856 19.536 9.76 13.008 14.688 27.984 14.688 44.928 0 15.616-4.928 30.288-14.688 43.936-9.728 13.664-25.024 20.496-45.856 20.496-16.944 0-32.24-6.176-45.888-18.544-13.664-12.4-20.496-27.664-20.496-45.888 0-18.272 6.832-33.552 20.496-45.888C579.36 511.184 594.688 505.04 611.6 505.04zM795.136 401.568c18.224 0 34.16 6.832 47.856 20.496 13.664 13.664 20.496 30.288 20.496 49.792 0 18.24-6.848 34.176-20.496 47.824-13.696 13.664-29.648 20.496-47.856 20.496-19.552 0-36.128-6.832-49.776-20.496-13.696-13.664-20.528-29.632-20.528-47.824 0-19.552 6.832-36.128 20.528-49.792C759.04 408.384 775.648 401.568 795.136 401.568z"  horiz-adv-x="1024" />

    
    <glyph glyph-name="user" unicode="&#58889;" d="M102.790426-128C102.531037-122.00397399999997 102.4-115.97409900000002 102.4-109.91304300000002L102.4-19.37965399999996C102.4 126.36431400000004 178.619763 254.34017900000003 293.170547 327.00543600000003L293.170547 327.00543600000003C354.0858 281.12740099999996 429.86692 253.93142999999998 512 253.93142999999998 594.206019 253.93142999999998 670.048792 281.17572600000005 730.991708 327.127708 845.552653 254.55068800000004 921.6 126.63406099999997 921.6-19.37965399999996L921.6-109.91304300000002C921.6-115.973658 921.468198-122.00353900000005 921.207322-128L102.790426-128 102.790426-128ZM512 349.866667C662.810556 349.866667 785.066669 472.122778 785.066669 622.933333 785.066669 773.743889 662.810556 896 512 896 361.189444 896 238.933333 773.743889 238.933333 622.933333 238.933333 472.122778 361.189444 349.866667 512 349.866667Z"  horiz-adv-x="1024" />

    
    <glyph glyph-name="history" unicode="&#58957;" d="M512 806.88C232.448 806.88 5.12 579.552 5.12 300S232.448-206.88 512-206.88c279.552 0 506.88 227.328 506.88 506.88S791.552 806.88 512 806.88zM512-94.24c-218.112 0-394.24 176.128-394.24 394.24 0 218.112 176.128 394.24 394.24 394.24S906.24 518.112 906.24 300C906.24 81.888 730.112-94.24 512-94.24zM568.32 300 568.32 637.92l-112.64 0 0-450.56 337.92 0L793.6 300 568.32 300z"  horiz-adv-x="1024" />

    
    <glyph glyph-name="good-post" unicode="&#58913;" d="M729.6 844.8C640 844.8 556.8 800 512 736c-51.2 64-134.4 108.8-224 108.8C128 844.8 0 716.8 0 556.8c0-76.8 25.6-147.2 76.8-198.4l403.2-403.2L512-76.79999999999995l32 32 396.8 403.2C992 409.6 1024 480 1024 556.8 1024 716.8 889.6 844.8 729.6 844.8L729.6 844.8 729.6 844.8z"  horiz-adv-x="1024" />

    
    <glyph glyph-name="baotu" unicode="&#58882;" d="M876.98432 725.81504 147.01568 725.81504C66.38592 725.81504 1.024 660.45312 1.024 579.82336l0-559.6416c0-80.62976 65.36192-145.99168 145.99168-145.99168l729.96864 0c80.62976 0 145.99168 65.36192 145.99168 145.99168L1022.976 579.82336C1022.976 660.45312 957.61408 725.81504 876.98432 725.81504zM949.98016 20.18176c0-40.24832-32.74752-72.99584-72.99584-72.99584L147.01568-52.81408c-40.24832 0-72.99584 32.74752-72.99584 72.99584L74.01984 579.82336c0 40.24832 32.74752 72.99584 72.99584 72.99584l729.96864 0c40.24832 0 72.99584-32.74752 72.99584-72.99584L949.98016 20.18176zM259.55328 348.6656c60.37504 0 109.49632 49.11616 109.49632 109.49632 0 60.37504-49.11616 109.4912-109.49632 109.4912-60.38016 0-109.49632-49.11616-109.49632-109.4912C150.05696 397.78176 199.17312 348.6656 259.55328 348.6656zM259.55328 494.65728c20.12672 0 36.49536-16.37376 36.49536-36.49536 0-20.12672-16.37376-36.49536-36.49536-36.49536-20.12672 0-36.50048 16.36864-36.50048 36.49536C223.0528 478.28352 239.42656 494.65728 259.55328 494.65728zM689.03936 402.48704c-6.70208 8.00768-16.512 12.78464-26.97216 13.07136-10.42944 0.92672-20.52096-3.89632-27.65824-11.49952l-157.58848-168.09472-64.61952 60.30848c-14.208 13.28128-36.31616 13.09184-50.29376-0.48128L170.2912 110.25792c-14.48448-14.01856-14.848-37.11488-0.82944-51.584 7.16288-7.41376 16.68096-11.12576 26.21952-11.12576 9.14944 0 18.29888 3.42016 25.39008 10.28608l166.68672 161.39264 65.88416-61.49632c14.73024-13.73184 37.79072-12.9536 51.52768 1.71008l154.29632 164.60288 143.89248-172.15488c12.928-15.47264 35.92704-17.536 51.40992-4.61312 15.47264 12.928 17.52576 35.95264 4.59776 51.42016L689.03936 402.48704z"  horiz-adv-x="1024" />

    
    <glyph glyph-name="edit" unicode="&#59014;" d="M128.5 75.5l0-160 160 0 471.872 471.872-160 160L128.5 75.5 128.5 75.5zM884.148 511.148c16.64 16.64 16.64 43.52 0 60.16l-99.84 99.84c-16.64 16.64-43.52 16.64-60.16 0l-78.08-78.08 160-160L884.148 511.148 884.148 511.148z"  horiz-adv-x="1024" />

    
    <glyph glyph-name="signout" unicode="&#60377;" d="M402.285714 73.142857q0-2.267429 0.585143-11.410286t0.292571-15.140571-1.682286-13.458286-5.705143-11.117714-11.702857-3.730286l-182.857143 0q-68.022857 0-116.297143 48.274286t-48.274286 116.297143l0 402.285714q0 68.022857 48.274286 116.297143t116.297143 48.274286l182.857143 0q7.460571 0 12.873143-5.412571t5.412571-12.873143q0-2.267429 0.585143-11.410286t0.292571-15.140571-1.682286-13.458286-5.705143-11.117714-11.702857-3.730286l-182.857143 0q-37.741714 0-64.585143-26.843429t-26.843429-64.585143l0-402.285714q0-37.741714 26.843429-64.585143t64.585143-26.843429l178.322286 0t6.582857-0.585143 6.582857-1.682286 4.534857-3.145143 4.022857-5.12 1.170286-7.68zM932.571429 384q0-14.848-10.825143-25.746286l-310.857143-310.857143q-10.825143-10.825143-25.746286-10.825143t-25.746286 10.825143-10.825143 25.746286l0 164.571429-256 0q-14.848 0-25.746286 10.825143t-10.825143 25.746286l0 219.428571q0 14.848 10.825143 25.746286t25.746286 10.825143l256 0 0 164.571429q0 14.848 10.825143 25.746286t25.746286 10.825143 25.746286-10.825143l310.857143-310.857143q10.825143-10.825143 10.825143-25.746286z"  horiz-adv-x="1024" />

    
    <glyph glyph-name="today-exercise" unicode="&#58943;" d="M511.999998 896c-282.597798 0-511.68858-229.090782-511.68858-511.68858s229.090782-511.68858 511.68858-511.68858 511.68858 229.090782 511.68858 511.68858S794.597796 896 511.999998 896zM511.999998-54.278790999999956c-242.226684 0-438.590211 196.363527-438.590211 438.590211s196.363527 438.590211 438.590211 438.590211 438.590211-196.363527 438.590211-438.590211S754.226682-54.278790999999956 511.999998-54.278790999999956z"  horiz-adv-x="1024" />

    
    <glyph glyph-name="lianxiwomen" unicode="&#58970;" d="M782.016 132.853333l-1.152 0.810667c0 0-69.056 42.282667-99.690667 61.248-11.776 7.317333-23.402667 10.56-34.538667 9.728-15.424-1.173333-24.256-9.962667-25.173333-10.965333l-1.130667-1.365333c-0.042667-0.085333-4.928-6.954667-16.149333-18.837333-10.858667-11.498667-28.138667-10.837333-42.666667 1.749333-18.602667 16.085333-124.010667 136.768-157.312 178.090667-6.656 8.234667-9.621333 16.021333-9.045333 23.701333 1.194667 15.808 17.386667 29.973333 26.090667 37.546667l3.093333 2.709333c17.536 15.808 17.6 40.938667 10.282667 57.642667-4.778667 10.858667-50.325333 97.664-55.744 107.349333-6.4 11.434667-16.533333 24.362667-38.08 22.72-12.266667-0.938667-43.946667-8.533333-63.36-25.984l-4.352-3.818667c-17.6-15.36-50.389333-43.904-46.250667-98.197333 5.248-68.970667 60.565333-167.808 169.066667-302.229333 116.032-143.722667 245.824-204.928 297.002667-201.024 46.912 3.562667 87.594667 69.248 99.925333 100.544C804.778667 104.352 790.997333 125.749333 782.016 132.853333zM512 812C229.226667 812 0 582.773333 0 300c0-282.773333 229.226667-512 512-512 282.773333 0 512 229.226667 512 512C1024 582.773333 794.773333 812 512 812zM512-148C250.986667-148 64 38.965333 64 300 64 561.013333 250.986667 748 512 748c261.013333 0 448-186.986667 448-448C960 38.965333 773.013333-148 512-148z"  horiz-adv-x="1024" />

    
    <glyph glyph-name="alignleft" unicode="&#58911;" d="M1024 44l0-73.142857q0-14.857143-10.857143-25.714286t-25.714286-10.857143l-950.857143 0q-14.857143 0-25.714286 10.857143t-10.857143 25.714286l0 73.142857q0 14.857143 10.857143 25.714286t25.714286 10.857143l950.857143 0q14.857143 0 25.714286-10.857143t10.857143-25.714286zm-219.428571 219.428571l0-73.142857q0-14.857143-10.857143-25.714286t-25.714286-10.857143l-731.428571 0q-14.857143 0-25.714286 10.857143t-10.857143 25.714286l0 73.142857q0 14.857143 10.857143 25.714286t25.714286 10.857143l731.428571 0q14.857143 0 25.714286-10.857143t10.857143-25.714286zm146.285714 219.428571l0-73.142857q0-14.857143-10.857143-25.714286t-25.714286-10.857143l-877.714286 0q-14.857143 0-25.714286 10.857143t-10.857143 25.714286l0 73.142857q0 14.857143 10.857143 25.714286t25.714286 10.857143l877.714286 0q14.857143 0 25.714286-10.857143t10.857143-25.714286zm-219.428571 219.428571l0-73.142857q0-14.857143-10.857143-25.714286t-25.714286-10.857143l-658.285714 0q-14.857143 0-25.714286 10.857143t-10.857143 25.714286l0 73.142857q0 14.857143 10.857143 25.714286t25.714286 10.857143l658.285714 0q14.857143 0 25.714286-10.857143t10.857143-25.714286z"  horiz-adv-x="1024" />

    
    <glyph glyph-name="gonggaolanguanli" unicode="&#59012;" d="M896 684l-768 0c-47.146667 0-85.333333-38.186667-85.333333-85.333333l0-512c0-47.146667 38.186667-85.333333 85.333333-85.333333l213.333333 0 0-85.333333 341.333333 0 0 85.333333 213.333333 0c47.146667 0 84.906667 38.186667 84.906667 85.333333l0.426667 512c0 47.146667-38.186667 85.333333-85.333333 85.333333zM896 86.666667l-768 0 0 512 768 0 0-512zM810.666667 470.666667l-469.333333 0 0-85.333333 469.333333 0 0 85.333333zM810.666667 300l-469.333333 0 0-85.333333 469.333333 0 0 85.333333zM298.666667 470.666667l-85.333333 0 0-85.333333 85.333333 0 0 85.333333zM298.666667 300l-85.333333 0 0-85.333333 85.333333 0 0 85.333333z"  horiz-adv-x="1024" />

    
    <glyph glyph-name="font" unicode="&#59140;" d="M125.28 62.977c43.797 13.512 91.322 4.193 110.891 54.513l110.425 287.012 130.46 337.331L512 741.833l24.694 0c1.863-3.262 3.728-6.523 5.125-9.785l95.515-223.645c34.945-82.469 67.094-165.87 102.505-247.873 20.966-48.456 37.273-98.311 60.57-145.835 3.262-7.455 9.784-21.433 16.307-26.558 15.376-12.114 58.241-14.91 80.14-23.297 1.398-8.853 2.796-17.705 2.796-26.558 0-4.193-0.466-7.921-0.466-12.114-59.173 0-118.346 7.455-177.519 7.455-61.036 0-122.072-5.125-183.109-6.989 0 12.114 0.466 24.229 1.864 36.343l61.036 13.046c12.58 2.795 37.274 6.057 37.274 23.296 0 16.773-60.104 155.154-67.56 174.257l-209.667 0.932c-12.114-27.023-59.172-149.097-59.172-166.802 0-35.876 68.491-37.274 95.049-41.001 0.466-8.854 0.466-17.706 0.466-27.024 0-4.193-0.466-8.387-0.932-12.58-54.047 0-108.561 9.318-162.608 9.318-6.523 0-15.842-2.795-22.365-3.727-29.354-5.126-58.241-6.523-87.594-6.523L125.28 62.977zM382.938 331.351c46.127-0.466 92.254-1.864 138.38-1.864 8.853 0 17.705 0.466 26.559 0.932-24.229 70.821-52.65 143.04-85.731 210.6L382.938 331.351z"  horiz-adv-x="1024" />

    
    <glyph glyph-name="camera" unicode="&#59064;" d="M511.45856 511.02464c-112.98944 0-204.58368-91.59424-204.58368-204.58368s91.59424-204.58368 204.58368-204.58368 204.58368 91.59424 204.58368 204.58368S624.44672 511.02464 511.45856 511.02464zM511.45856 434.30656c-70.27968 0-127.30752-56.70272-127.85152-126.8544l-25.57184 0.09216c0.59392 84.23296 69.05088 152.33536 153.42336 152.33536L511.45856 434.30656zM971.77088 664.46208L830.75584 664.46208c-52.41728 7.51616-72.14592 34.54976-79.5648 54.40768l-9.57696 47.8848C732.16 796.16 705.92 819.06176 644.43776 817.8995199999999l-265.9584 0C325.12 819.34592 290.56 797.44 281.30176 766.75456l-5.11488-25.57312c0 0 0 0 0 0l-3.2896-16.45056c-13.33504-43.27424-59.58144-56.68224-96.32512-60.26752L51.14624 664.46336C22.89792 664.46208 0 641.5616 0 613.3171199999999l0-613.74976c0-28.24832 22.89792-51.14624 51.14624-51.14624l920.62464 0c28.24832 0 51.14624 22.89792 51.14624 51.14624L1022.91712 613.3171199999999C1022.91712 641.5616 1000.0192 664.46208 971.77088 664.46208zM511.45856 50.71231999999998c-141.23392 0-255.72864 114.49472-255.72864 255.72864s114.49472 255.72864 255.72864 255.72864 255.72864-114.49472 255.72864-255.72864S652.69248 50.71231999999998 511.45856 50.71231999999998zM895.05152 485.45152c-28.24832 0-51.14624 22.89792-51.14624 51.14624 0 28.24832 22.89792 51.14624 51.14624 51.14624 28.24832 0 51.14624-22.89792 51.14624-51.14624C946.19776 508.34944 923.29984 485.45152 895.05152 485.45152z"  horiz-adv-x="1024" />

    
    <glyph glyph-name="photo" unicode="&#58885;" d="M904.081408 18.56512 119.92064 18.56512c-45.585408 0-82.54464 36.960256-82.54464 82.543616L37.376 658.276352c0 45.584384 36.959232 82.542592 82.54464 82.542592l175.403008 0 51.590144 82.543616c0 11.365376 29.867008 20.635648 41.271296 20.635648l247.630848 0c11.40736 0 41.27232-9.270272 41.27232-20.635648l51.58912-82.543616 175.40608 0c45.584384 0 82.541568-36.959232 82.541568-82.542592L986.625024 101.10976C986.624 55.525376 949.665792 18.56512 904.081408 18.56512zM512 658.276352c-148.159488 0-268.266496-120.107008-268.266496-268.265472 0-148.159488 120.107008-268.266496 268.266496-268.266496S780.265472 241.852416 780.265472 390.01088l0 0C780.265472 538.169344 660.158464 658.276352 512 658.276352L512 658.276352zM512 204.289024c-102.575104 0-185.721856 83.146752-185.721856 185.721856S409.424896 575.73376 512 575.73376s185.721856-83.146752 185.721856-185.721856S614.575104 204.289024 512 204.289024L512 204.289024z"  horiz-adv-x="1024" />

    
    <glyph glyph-name="search" unicode="&#58944;" d="M661.578513 122.771268c-59.706683-40.118926-131.293941-64.055965-208.573641-65.415116-213.434603-3.725671-389.484572 166.280075-393.210244 379.714678-3.725671 213.434603 166.280075 389.484572 379.714678 393.210244 213.434603 3.725671 389.484572-166.280075 393.210244-379.714678 1.343161-77.2797-20.083448-149.650468-58.091693-210.732292l193.926796-187.274953-113.049344-117.062836L661.578513 122.771268zM710.236102 448.423735c-2.542411 146.036727-122.995128 262.348032-269.031855 259.805621-146.036727-2.542411-262.348032-122.995128-259.805621-269.031855 2.542411-146.036727 122.995128-262.348032 269.031855-259.805621C596.467208 181.934291 712.794503 302.387008 710.236102 448.423735z"  horiz-adv-x="1024" />

    
    <glyph glyph-name="music" unicode="&#59013;" d="M925.64646 590.839859c-19.216667 45.433772-46.721091 86.231967-81.747839 121.258715-35.026748 35.026748-75.823919 62.530149-121.258715 81.746816-47.056736 19.903306-97.023754 29.996175-148.512429 29.996175L449.870476 823.841563c-51.488675 0-101.455693-10.091846-148.512429-29.996175-45.434795-19.216667-86.23299-46.720068-121.259738-81.746816-35.026748-35.026748-62.530149-75.823919-81.747839-121.258715-19.903306-47.056736-29.995151-97.023754-29.995151-148.514475L68.355319 138.924305c0-18.805298 15.244192-34.04949 34.04949-34.04949s34.04949 15.244192 34.04949 34.04949L136.4543 442.325383c0 172.817997 140.598178 313.416176 313.416176 313.416176l124.257002 0c172.817997 0 313.415153-140.598178 313.415153-313.416176l0-306.125119c0-18.805298 15.243169-34.04949 34.048467-34.04949s34.04949 15.244192 34.04949 34.04949L955.640588 442.325383C955.642634 493.815081 945.550789 543.7821 925.64646 590.839859zM269.783934 333.685058c-64.585971 0-117.130697-52.543703-117.130697-117.128651l0-155.267273c0-64.583924 52.544727-117.128651 117.130697-117.128651S386.915655-3.295813 386.915655 61.289134L386.915655 216.556407C386.915655 281.141354 334.369905 333.685058 269.783934 333.685058zM750.563886 333.685058c-64.584947 0-117.130697-52.543703-117.130697-117.128651l0-155.267273c0-64.583924 52.54575-117.128651 117.130697-117.128651s117.129674 52.544727 117.129674 117.128651L867.69356 216.556407C867.69356 281.141354 815.148833 333.685058 750.563886 333.685058z"  horiz-adv-x="1024" />

    
    <glyph glyph-name="zhaoxiangji" unicode="&#58979;" d="M512 608c-124.8 0-224-99.2-224-224s99.2-224 224-224 224 99.2 224 224S636.8 608 512 608zM512 208c-96 0-176 80-176 176s80 176 176 176 176-80 176-176S608 208 512 208zM768 524.8a1.6 1.6 0 1 0 102.4 0 1.6 1.6 0 1 0-102.4 0ZM864 672l-96 0-22.4 67.2c-6.4 16-25.6 28.8-41.6 28.8l-384 0c-19.2 0-35.2-12.8-41.6-28.8l-22.4-67.2-96 0c-54.4 0-96-41.6-96-96l0-448c0-54.4 44.8-96 96-96l704 0c54.4 0 96 41.6 96 96l0 448C960 630.4 918.4 672 864 672zM912 128c0-25.6-22.4-48-48-48l-704 0c-25.6 0-48 22.4-48 48l0 448c0 25.6 22.4 48 48 48l96 0 35.2 0 9.6 32 22.4 64 377.6 0 22.4-64 9.6-32 35.2 0 96 0c25.6 0 48-22.4 48-48L912 128z"  horiz-adv-x="1024" />

    
    <glyph glyph-name="my-collect" unicode="&#58940;" d="M508.8 892.4c-279.9 0-505.2-228.5-505.2-508.4S232.1-124.39999999999998 512-124.39999999999998s508.4 228.5 508.4 508.4C1017.2 663.9 788.7 892.4 508.8 892.4zM727.6 62.200000000000045L508.8 194.20000000000005 290 62.200000000000045 344.7 310 154.8 480.5 409 503.1l99.7 234.9 99.7-234.9 254.2-22.5L669.7 313.20000000000005 727.6 62.200000000000045z"  horiz-adv-x="1024" />

    
    <glyph glyph-name="run" unicode="&#58914;" d="M447.016 100.016 169.032 158 184.032 219.016 400.037333 177.032 494.048 564.016 375.053333 508.021333 375.053333 342.016 321.042666 352.016 321.042666 552.037333 523.037333 646.032C527.048 646.032 532.708444 646.700444 540.018666 648.037333 547.328888 649.374222 552.989332 650.042666 556.999999 650.042666 584.989332 650.042666 608.996443 636.047999 629.021332 608.058666L671.005332 540.047999C709.661332 472.037332 771.001776 438.031999 855.026665 438.031999L853.026665 377.015999C758.363554 377.015999 672.368887 422.343999 611.042665 492.999999L583.058665 339.999999 685.042665 245.989332 685.042665-74.010668 619.026665-74.010668 619.026665 201.989332 499.042665 315.999999 447.016 100.016ZM621 672.016C598.329778 672.016 578.333334 680.677333 561.010667 698 543.688 715.322667 535.026667 735.319111 535.026667 757.989333 535.026667 780.659555 543.688 800.328888 561.010667 816.997333 578.333334 833.665778 598.329778 842 621 842 643.670222 842 663.339555 833.665778 680.008 816.997333 696.676445 800.328888 705.010667 780.659555 705.010667 757.989333 705.010667 735.319111 696.676445 715.322667 680.008 698 663.339555 680.677333 643.670222 672.016 621 672.016L621 672.016Z"  horiz-adv-x="1024" />

    
    <glyph glyph-name="messge" unicode="&#59122;" d="M227.590462-77.02093200000002c-3.529383 0-7.057743 0.911766-10.221806 2.736321-6.338359 3.653203-10.244318 10.414187-10.244318 17.729803L207.124338 123.594155c-87.468121 77.914534-133.629463 184.344518-133.629463 308.434721 0 54.416354 12.151761 107.175975 36.117592 156.814512 23.054065 47.749514 56.006572 90.575902 97.943706 127.290081 41.751916 36.552497 90.338495 65.228607 144.411017 85.234243 55.839773 20.659529 115.152647 31.134091 176.293145 31.134091 102.603843 0 207.984938-42.520419 289.124933-116.65793 40.681538-37.170574 72.854285-79.895655 95.625918-126.989229 24.285103-50.225915 36.600593-102.989629 36.600593-156.824745 0-109.524462-41.349757-211.553207-116.430756-287.292192-37.880749-38.210253-82.740446-68.098981-133.336798-88.835258-52.933583-21.695115-110.664426-32.695656-171.587983-32.695656-26.226315 0-79.217203 3.979638-108.298542 7.967462L237.845013-74.26619200000005C234.673787-76.10200299999997 231.132124-77.02093200000002 227.590462-77.02093200000002z"  horiz-adv-x="1024" />

    
    <glyph glyph-name="delete" unicode="&#59020;" d="M608 128c-17.696 0-32 14.304-32 32L576 512c0 17.696 14.304 32 32 32s32-14.304 32-32l0-352C640 142.304 625.696 128 608 128zM416 128c-17.696 0-32 14.304-32 32L384 512c0 17.696 14.304 32 32 32s32-14.304 32-32l0-352C448 142.304 433.696 128 416 128zM928 672l-160 0L768 736c0 52.928-42.72 96-95.264 96L352 832C299.072 832 256 788.928 256 736l0-64L96 672C78.304 672 64 657.696 64 640s14.304-32 32-32l832 0c17.696 0 32 14.304 32 32S945.696 672 928 672zM320 736c0 17.632 14.368 32 32 32l320.736 0C690.272 768 704 753.952 704 736l0-64L320 672 320 736zM736.128-64 288.064-64c-52.928 0-96 43.072-96 96L192.064 512.48c0 17.664 14.336 32 32 32s32-14.336 32-32L256.064 32c0-17.664 14.368-32 32-32l448.064 0c17.664 0 32 14.336 32 32L768.128 511.168c0 17.664 14.304 32 32 32s32-14.336 32-32L832.128 32C832.128-20.928 789.056-64 736.128-64z"  horiz-adv-x="1024" />

    
    <glyph glyph-name="list" unicode="&#58883;" d="M196.535165 661.729395l635.021871 0c19.48375 0 35.279504 15.793708 35.279504 35.279504 0 19.485797-15.795754 35.278481-35.279504 35.278481L196.535165 732.287381c-19.48375 0-35.278481-15.793708-35.278481-35.278481C161.256684 677.52208 177.052438 661.729395 196.535165 661.729395zM831.557036 450.055438 196.535165 450.055438c-19.48375 0-35.278481-15.795754-35.278481-35.279504 0-19.48375 15.795754-35.276435 35.278481-35.276435l635.021871 0c19.48375 0 35.279504 15.793708 35.279504 35.276435C866.836541 434.259684 851.040786 450.055438 831.557036 450.055438zM831.557036 191.340095 196.535165 191.340095c-19.48375 0-35.278481-15.793708-35.278481-35.276435s15.795754-35.278481 35.278481-35.278481l635.021871 0c19.48375 0 35.279504 15.795754 35.279504 35.278481S851.040786 191.340095 831.557036 191.340095z"  horiz-adv-x="1024" />

    
    <glyph glyph-name="add-photo" unicode="&#59074;" d="M963.764706 444.235294L572.235294 444.235294 572.235294 835.764706c0 33.129412-27.105882 60.235294-60.235294 60.235294-33.129412 0-60.235294-27.105882-60.235294-60.235294l0-391.529412L60.235294 444.235294c-33.129412 0-60.235294-27.105882-60.235294-60.235294s27.105882-60.235294 60.235294-60.235294l391.529412 0 0-391.529412c0-33.129412 27.105882-60.235294 60.235294-60.235294 33.129412 0 60.235294 27.105882 60.235294 60.235294L572.235294 323.76470600000005l391.529412 0c33.129412 0 60.235294 27.105882 60.235294 60.235294S996.894118 444.235294 963.764706 444.235294z"  horiz-adv-x="1024" />

    
    <glyph glyph-name="movie" unicode="&#58953;" d="M512.064 851.52c-258.24 0-467.52-209.344-467.52-467.52s209.28-467.52 467.52-467.52c258.176 0 467.392 209.344 467.392 467.52s-209.216 467.52-467.392 467.52zM222.656 428.544c0 49.152 39.872 89.024 89.088 89.024s89.024-39.872 89.024-89.024c0-49.216-39.872-89.024-89.024-89.024-49.216 0-89.088 39.872-89.088 89.024zM378.432 94.592c-49.152 0-89.024 39.936-89.024 89.088s39.872 89.024 89.024 89.024 89.024-39.872 89.024-89.024-39.872-89.088-89.024-89.088zM422.976 606.656c0 49.152 39.872 89.024 89.024 89.024s89.024-39.872 89.024-89.024c0-49.216-39.872-89.024-89.024-89.024s-89.024 39.872-89.024 89.024zM645.632 94.592c-49.216 0-89.088 39.936-89.088 89.088s39.872 89.024 89.088 89.024c49.152 0 89.024-39.872 89.024-89.024s-39.872-89.088-89.024-89.088zM712.384 339.52c-49.152 0-89.088 39.872-89.088 89.024s39.936 89.024 89.088 89.024 89.024-39.872 89.024-89.024c0-49.216-39.808-89.024-89.024-89.024z"  horiz-adv-x="1024" />

    
    <glyph glyph-name="tuichu" unicode="&#58965;" d="M177.135838 345.795886l66.353221-66.336848c11.319813-11.299347 11.358699-29.592992-0.056282-41.007973-11.340279-11.337209-29.825282-11.226692-40.992623-0.037862L94.207104 346.623741c-5.499248 1.020236-10.772344 3.666506-15.042601 7.937786-6.614651 6.614651-9.373485 15.532765-8.316409 24.079418-1.057075 8.540514 1.701758 17.460674 8.316409 24.075325 4.270257 4.27128 9.543354 6.878664 15.042601 7.937786L202.440154 518.867664c11.169387 11.187807 29.652344 11.30037 40.992623-0.038886 11.413957-11.413957 11.376095-29.708626 0.056282-41.008996l-73.969689-73.968665 355.766726 0c16.138562 0 29.063943-13.002129 29.063943-29.028127 0-16.140609-13.019525-29.027104-29.063943-29.027104L177.135838 345.795886 177.135838 345.795886zM263.955182 655.428899c0-16.025998 13.003152-29.028127 29.04757-29.027104 16.045441 0 29.046546 13.003152 29.046546 29.028127L322.049299 732.912621c0 21.393239 17.237593 38.628786 38.535665 38.628786l464.922798 0c21.128203 0 38.553061-17.310248 38.553061-38.628786l0-696.788633c0-21.391193-17.274432-38.667671-38.553061-38.667671L360.584963-2.543683c-21.11183 0-38.535665 17.312294-38.535665 38.667671l0 77.44586c0 16.025998-13.001105 29.027104-29.046546 29.027104-16.044418 0-29.04757-13.001105-29.04757-29.027104l0-96.722902c0-42.747593 34.698267-77.447906 77.446883-77.447906l503.267105 0c42.787502 0 77.446883 34.624589 77.446883 77.447906L922.116053 752.150778c0 42.787502-34.697243 77.446883-77.446883 77.446883L341.402065 829.597661c-42.768059 0-77.446883-34.622542-77.446883-77.446883L263.955182 655.428899 263.955182 655.428899z"  horiz-adv-x="1024" />

    
    <glyph glyph-name="shangdian" unicode="&#59010;" d="M351.207897 64.638415c-35.183314 0-63.704904-28.629038-63.704904-63.945381 0-35.314297 28.52159-63.944358 63.704904-63.944358 35.18229 0 63.703881 28.630061 63.703881 63.944358C414.911778 36.008354 386.390187 64.638415 351.207897 64.638415L351.207897 64.638415 351.207897 64.638415M797.10641 64.638415c-35.183314 0-63.704904-28.629038-63.704904-63.945381 0-35.314297 28.52159-63.944358 63.704904-63.944358 35.181267 0 63.703881 28.630061 63.703881 63.944358C860.810291 36.008354 832.287677 64.638415 797.10641 64.638415L797.10641 64.638415 797.10641 64.638415M860.300684 96.594221 342.953909 96.594221c-45.890166 0-86.234013 36.435841-91.843778 82.978876l-54.016241 381.715725-30.752398 178.400133c-1.912559 15.57779-16.060791 28.27702-29.860075 28.27702l-40.567951 0c-17.591657 0-31.867802 14.331403-31.867802 31.955806 0 17.658172 14.277168 31.988552 31.867802 31.988552l40.567951 0c46.464241 0 87.255273-36.433794 92.895737-82.97683l30.65723-177.727821 54.239322-383.347898c1.784646-14.842033 15.169491-27.349905 28.650527-27.349905l517.345752 0c17.623379 0 31.867802-14.298658 31.867802-31.955806C892.136763 110.892879 877.891318 96.594221 860.300684 96.594221L860.300684 96.594221M382.75745 224.48396c-16.540721 0-30.498618 12.795421-31.740912 29.621645-1.306762 17.624403 11.886725 32.915667 29.382191 34.1948l432.067506 31.955806c15.870456 0.096191 29.222555 12.604062 30.975479 26.806529l50.161447 288.119023c1.27504 10.748808-1.689479 22.520923-8.095375 29.78128-4.110621 4.670369-9.273201 7.037277-15.296381 7.037277L318.829466 672.00032c-17.590634 0-31.867802 14.331403-31.867802 31.955806 0 17.658172 14.277168 31.956829 31.867802 31.956829l551.444361 0c24.347524 0 46.686299-10.139941 62.972217-28.598338 18.61087-21.080108 27.151383-50.765197 23.423479-81.538061l-50.192146-288.150746c-5.417383-44.814672-45.730531-81.250512-91.620697-81.250512L385.115148 224.580151C384.317992 224.516706 383.52186 224.48396 382.75745 224.48396L382.75745 224.48396M382.75745 224.48396"  horiz-adv-x="1024" />

    
    <glyph glyph-name="undo" unicode="&#59273;" d="M950.857143 384q0-89.142857-34.857143-170.285714t-93.714286-140-140-93.714286-170.285714-34.857143q-98.285714 0-186.857143 41.428572T174.285714 103.428571q-4 5.714286-3.714285 12.857143t4.857142 11.714286l78.285715 78.857143q5.714286 5.142857 14.285714 5.142857 9.142857-1.142857 13.142857-6.857143 41.714286-54.285714 102.285714-84t128.571429-29.714286q59.428571 0 113.428571 23.142858T718.857143 177.142857t62.571428 93.428572T804.571429 384t-23.142858 113.428571T718.857143 590.857143t-93.428572 62.571428T512 676.571429q-56 0-107.428571-20.285715T313.142857 598.285714l78.285714-78.857143q17.714286-17.142857 8-39.428571-9.714286-22.857143-33.714285-22.857143H109.714286q-14.857143 0-25.714286 10.857143t-10.857143 25.714286V749.714286q0 24 22.857143 33.714285 22.285714 9.714286 39.428571-8l74.285715-73.714285q61.142857 57.714286 139.714285 89.428571T512 822.857143q89.142857 0 170.285714-34.857143t140-93.714286 93.714286-140 34.857143-170.285714z"  horiz-adv-x="1024" />

    
    <glyph glyph-name="fuwutiaokuan" unicode="&#58959;" d="M997.686193 684.106032H381.220956v-41.761126H997.686193v41.761126z m0.007163-362.491894v42.343387h-617.954147l2.121314-42.343387h615.832833z m-0.820692-278.209326H381.100206v-42.114167h618.111736c-0.890276 16.055674-1.679245 30.128181-2.339278 42.114167zM272.08842 755.923708a6.239098 6.239098 0 0 0-0.25071-0.372484c-0.168846-0.23843-0.336668-0.476861-0.508583-0.712221 0.095167-0.107447 0.184195-0.215918 0.277316-0.324388 0.180102 0.546446 0.335644 0.997724 0.481977 1.409093z m0 0c1.189082 1.888 1.408069 3.988848 0 0zM126.405433 564.666756c28.505217 35.669384 57.101509 71.281463 84.832084 107.549481 20.678972 27.051099 40.212864 54.968939 60.090587 82.622766-10.879792 12.755512-18.720364 21.950941-25.654287 30.081109L108.314403 612.885967c-21.809725 21.804608-40.089044 40.073694-58.310034 58.291615l-19.013029-18.99154c30.627555-30.597879 59.862389-59.807131 90.164532-90.084715-1.006933-0.452301 3.297093 0.119727 5.249561 2.565429z m-8.371668-330.384639c55.617715 71.587432 107.654882 138.558729 157.033499 202.11423-10.1645 12.729929-18.192338 22.786982-25.975604 32.538067L111.19501 295.651836c-20.433378 20.747533-39.065737 39.660278-57.69605 58.577117-9.627265-9.614985-19.053961-19.032472-28.735462-28.696576 30.909987-29.690206 59.947324-61.426001 93.270267-91.25026z m-8.714475-261.167185c-21.394263 21.391193-39.835264 39.838334-56.452734 56.452733A79554.269565 79554.269565 0 0 1 30.24228 10.568962c30.15274-30.115901 59.435671-59.366086 91.563392-91.451851a10072430.171704 10072430.171704 0 0 0 155.809625 199.843514c-11.283997 11.268648-19.363 19.331277-29.05371 29.014824-46.856168-58.839083-91.840708-115.330702-139.242297-174.860517z"  horiz-adv-x="1024" />

    
    <glyph glyph-name="eraser" unicode="&#59164;" d="M692.906667 744.106667l211.2-210.773334c33.28-33.706667 33.28-87.466667 0-121.173333L512 20.053333a171.008 171.008 0 0 0-241.493333 0L119.893333 170.666667c-33.28 33.706667-33.28 87.466667 0 121.173333l452.266667 452.266667c33.706667 33.28 87.466667 33.28 120.746667 0M180.053333 231.253333l151.04-150.613333c33.28-33.706667 87.04-33.706667 120.746667 0l150.613333 150.613333-211.2 211.2-211.2-211.2z"  horiz-adv-x="1024" />

    
    <glyph glyph-name="home" unicode="&#58881;" d="M765.735-21.609000000000037H603.528c-16.858 0-30.536 13.344-30.536 29.826v176.03H451.238v-176.03c0-16.482-13.658-29.826-30.515-29.826H258.265c-16.857 0-30.516 13.344-30.516 29.826V353.12800000000004H95.224c-12.551 0-23.844 7.572-28.425 18.99-4.58 11.463-1.527 24.474 7.698 32.797L491.274 781.7c11.713 10.542 29.763 10.542 41.477 0l416.755-376.786c9.223-8.323 12.279-21.334 7.697-32.797-4.582-11.417-15.877-18.99-28.425-18.99H796.253v-344.911c-0.001-16.482-13.66-29.826-30.518-29.826z m-131.666 59.655"  horiz-adv-x="1024" />

    
    <glyph glyph-name="car" unicode="&#58896;" d="M512.922 800.988c192.639 0 290.97-26.65 374.336-214.088h63.274c38.847 0 38.952-75.737 0-75.737h-32.606c23.751-33.082 101.045-110.8 101.045-200.829v-298.067l-0.017-0.538-0.019-0.537-0.035-0.538-0.043-0.52-0.063-0.528-0.07-0.521h-0.008l-0.08-0.51-0.105-0.521-0.105-0.493-0.124-0.51-0.142-0.495-0.141-0.493-0.157-0.493-0.177-0.484-0.178-0.485-0.202-0.475-0.202-0.46-0.211-0.458-0.23-0.458-0.228-0.458h-0.019l-0.238-0.433h-0.009l-0.247-0.432-0.272-0.423-0.274-0.423h-0.007l-0.282-0.423-0.3-0.406-0.309-0.387-0.318-0.404-0.317-0.39h-0.008l-0.335-0.378-0.343-0.362-0.353-0.361-0.354-0.353-0.369-0.343-0.37-0.336-0.404-0.326-0.381-0.316h-0.007l-0.39-0.309-0.404-0.291-0.423-0.291-0.423-0.272-0.425-0.272-0.439-0.266-0.44-0.246-0.449-0.23-0.458-0.219-0.46-0.221-0.465-0.202-0.468-0.203-0.485-0.177-0.475-0.176-0.493-0.158-0.495-0.143-0.493-0.148-0.511-0.114-0.502-0.115-0.521-0.087-0.51-0.09-0.53-0.087-0.52-0.063-0.528-0.035-0.528-0.035-0.538-0.026H887.002c-11.641 0.15-20.822 9.21-20.964 20.947V61.07000000000005H159.803l-0.009-48.804c-0.128-11.746-9.315-20.797-20.957-20.947H27.292l-0.528 0.026h-0.009l-0.525 0.035-0.528 0.035-0.529 0.063-0.52 0.087-0.515 0.09-0.516 0.087-0.507 0.115-0.501 0.114-0.502 0.148-0.498 0.143-0.485 0.158-0.48 0.176-0.476 0.177-0.477 0.203-0.467 0.202-0.462 0.221-0.45 0.219-0.454 0.23-0.44 0.246-0.44 0.266-0.419 0.272-0.432 0.272-0.41 0.291-0.41 0.291-0.4 0.309-0.392 0.316-0.384 0.326-0.378 0.336-0.361 0.343-0.365 0.353-0.349 0.361-0.344 0.362h-0.003l-0.327 0.378H12l-0.322 0.39h-0.003l-0.313 0.404-0.308 0.387-0.296 0.406-0.287 0.423h-0.003l-0.278 0.423-0.269 0.423-0.256 0.432h-0.007l-0.243 0.433h-0.003l-0.234 0.458h-0.01l-0.216 0.458-0.22 0.458-0.203 0.46-0.193 0.475-0.181 0.485-0.168 0.484h-0.008l-0.158 0.493-0.146 0.493-0.141 0.495-0.115 0.51-0.119 0.494-0.093 0.521h-0.008l-0.08 0.51h-0.003l-0.075 0.521-0.058 0.528-0.044 0.52h-0.004l-0.031 0.538-0.021 0.537-0.009 0.538V310.33399999999995c0 90.029 77.291 167.748 101.032 200.829H75.312c-38.956 0-38.859 75.737 0 75.737h63.274C221.949 774.338 320.283 800.988 512.922 800.988z m0-275.617h321.7c-36.441 190.047-156.626 219.407-321.7 219.407-165.082 0-285.263-29.36-321.703-219.407h321.703zM302.386 247.793c-10.853 20.496-29.787 39.056-33.783 65.467-1.786 11.73-8.122 17.423-16.269 20.243l-107.152 37.198c-23.521 8.17-30.413-9.025-32.686-18.764-6.649-28.535-5.244-53.298 10.967-71.319 31.875-35.434 192.177-57.854 178.923-32.825z m421.065 0c-13.255-25.029 147.047-2.609 178.931 32.825 16.196 18.021 17.607 42.784 10.953 71.319-2.265 9.738-9.156 26.934-32.686 18.764l-107.144-37.198c-8.144-2.82-14.487-8.513-16.268-20.243-4-26.411-22.939-44.971-33.786-65.467z"  horiz-adv-x="1024" />

    
    <glyph glyph-name="plus" unicode="&#58897;" d="M560.645 772.612c0 33.112-25.35 60.157-56.324 60.157-30.975 0-56.325-27.08-56.325-60.157v-319.67c0-4.868-3.916-8.844-8.758-8.844H124.539c-33.004 0-60.027-24.851-60.027-55.186 0-30.37 27.023-55.221 60.027-55.221h316.052c4.023 0 7.37-3.908 7.37-8.775v-323.167c0-33.078 25.35-60.157 56.324-60.157 31.01 0 56.324 27.08 56.324 60.157V327.212c0 3.496 2.991 6.376 6.658 6.376H894.462c33.04 0 60.063 24.85 60.063 55.255 0 30.335-27.023 55.186-60.063 55.186H568.62c-4.45 0-8.046 4.868-8.046 10.763v317.82h0.071z"  horiz-adv-x="1024" />

    
    <glyph glyph-name="yishitubiao-" unicode="&#58890;" d="M512 858.88H42.666667v-213.333333h52.053333c64 102.826667 87.893333 85.333333 289.28 85.333333v-672.426667a97.28 97.28 0 0 0-8.533333-42.666666 62.293333 62.293333 0 0 0-34.56-28.586667 109.226667 109.226667 0 0 0-38.4-8.96 332.373333 332.373333 0 0 1-46.506667-5.973333v-52.053334h469.333333v52.053334a332.373333 332.373333 0 0 1-45.226666 5.546666 109.226667 109.226667 0 0 0-38.4 8.96 62.293333 62.293333 0 0 0-34.56 28.586667 97.28 97.28 0 0 0-8.533334 42.666667L597.333333 730.88c201.386667 0 225.28 17.493333 289.28-85.333333H938.666667v213.333333z"  horiz-adv-x="1024" />

    
    <glyph glyph-name="news" unicode="&#58927;" d="M344.064-118.78399999999999c-6.656 0-12.8 2.56-17.408 7.168-4.608 4.608-6.656 10.752-6.656 16.896 0 6.144 2.56 12.288 7.168 16.896l189.44 184.32c6.656 6.656 15.36 10.24 25.088 10.24h393.728c9.216 0 18.432 3.584 25.088 10.24 6.656 6.656 10.24 15.36 10.24 25.088V710.656c0 9.216-3.584 18.432-10.24 25.088-6.656 6.656-15.36 10.24-25.088 10.24H98.816c-19.456 0-35.328-15.872-35.328-35.328v-558.592c0-19.456 15.872-35.328 35.328-35.328h178.688c13.312 0 23.552-10.752 23.552-24.064s-10.752-23.552-23.552-23.552H98.816c-45.568 0-82.944 37.376-82.944 82.944V710.656c0 45.568 37.376 82.944 82.944 82.944h836.608c45.568 0 82.944-37.376 82.944-82.944v-558.592c0-45.568-37.376-82.944-82.944-82.944h-366.08c-14.848 0-28.672-5.632-38.912-15.872l-169.472-165.376c-4.608-4.608-10.752-6.656-16.896-6.656zM309.76 321.53599999999994h-42.496l-81.92 125.44c-4.096 6.656-7.168 11.776-9.216 15.872h-0.512c0.512-6.656 1.024-16.896 1.024-30.72v-110.08h-38.912V515.072h45.056l78.848-121.856c5.12-8.192 8.704-13.312 9.728-15.36h0.512c-1.024 4.608-1.024 13.824-1.024 26.624V515.072h38.912v-193.536zM469.504 321.53599999999994H354.816V515.072h110.08V481.28H395.776v-45.568h64v-33.792H395.776v-47.104h73.216v-33.28zM756.736 515.072l-51.712-193.536h-46.08l-32.768 126.464c-1.536 6.656-2.56 13.824-3.072 21.504h-0.512c-1.024-8.704-2.048-15.872-3.584-21.504l-33.792-126.464H537.6L486.4 515.072h45.056l28.672-131.072c1.024-5.632 2.048-12.8 2.56-21.504h1.024c0.512 6.656 1.536 14.336 4.096 22.528l35.84 130.56h44.032l32.768-132.096c1.536-5.12 2.56-12.288 3.072-20.48h0.512c0.512 7.168 1.536 14.336 3.072 21.504l28.16 131.584h41.472zM773.12 370.17600000000004c15.36-12.8 33.28-19.456 53.248-19.456 11.264 0 19.456 2.048 25.6 5.632 5.632 4.096 8.704 8.704 8.704 14.848 0 5.12-2.048 10.24-6.656 14.848-4.608 4.608-16.384 10.752-35.84 18.944-30.208 12.8-45.568 31.744-45.568 55.808 0 17.92 6.656 31.744 20.48 41.984 13.824 9.728 31.744 14.848 54.272 14.848 18.944 0 34.816-2.56 47.616-7.168v-38.912c-12.8 8.704-28.16 13.312-45.568 13.312-10.24 0-18.432-2.048-24.576-5.632-6.144-3.584-9.216-8.704-9.216-14.848 0-5.12 2.048-9.728 6.144-13.824 4.096-4.096 14.336-9.728 30.72-16.896 19.456-8.192 32.256-16.896 39.936-26.112 7.168-9.216 10.752-19.968 10.752-32.768 0-18.432-6.656-32.768-19.968-42.496-13.312-9.728-31.744-14.848-56.32-14.848-22.016 0-40.448 3.584-54.272 10.752v41.984z"  horiz-adv-x="1024" />

    
    <glyph glyph-name="technology" unicode="&#58880;" d="M943.74363 131.58310700000004c-25.826202-45.019333-79.029938-68.026326-152.512533-68.026326-29.020964 0-61.482283 3.846608-96.393397 11.039427C654.653489-54.259532000000036 590.25683-127.33792100000005 514.573103-127.33792100000005c-75.588559 0-139.987265 73.078389-180.168405 201.935152-35.873022-7.597025-68.831668-11.162224-98.224092-11.162224-72.706929 0-124.576273 22.63451-150.682861 68.149123-36.462446 63.62304-7.348362 153.104003 79.341022 249.28046-86.690408 96.238878-115.805516 185.686073-79.342046 249.324462 36.027541 62.753229 125.600603 82.597183 248.906953 56.862055C374.585839 816.033737 438.983521 889.017982 514.573103 889.017982c75.68475 0 140.081409-72.985268 180.264597-201.966875 38.939871 8.29492 74.224492 11.968589 105.477286 11.286044 68.923766-1.458211 118.28294-24.291243 143.428644-68.149122 36.461423-63.638389 7.348362-153.086607-79.342046-249.325486 86.690408-96.175433 115.803469-185.656397 79.342046-249.279436z m-529.626449 11.472285C445.372022 15.531997000000047 492.311077-31.998528999999962 514.573103-31.998528999999962c19.655665 0 58.320267 36.709063 88.580455 132.142599-35.468816 12.155854-71.89954 27.036773-109.013833 44.647873-30.260188 14.44806-60.054771 30.075992-88.394212 46.661739-0.496304 0.278339-0.961908 0.589424-1.364068 0.869811 3.006474-16.680914 5.892197-33.455973 9.735736-49.268101z m-245.931179 35.840277c8.990768-15.562441 55.343469-29.764907 144.048767-11.657504-7.131421 37.70167-13.114692 76.460416-16.309454 117.323078-2.200108 28.740578-3.255137 58.538231-3.472078 88.239694-9.827833-8.620331-19.377326-17.362436-28.338419-26.044166-89.852424-87.433328-106.531292-149.317771-95.928816-167.861102z m186.743148 405.297816C238.195495 617.0743600000001 178.417017 600.7823020000001 168.091858 582.7669960000001c-9.146311-15.999392 2.420119-65.10888 64.987106-135.366014 25.361621 22.073738 52.925397 43.839461 82.814124 65.079204 28.710902 20.24509 58.041928 39.127136 87.156013 56.212257-16.309454 5.76633-32.493042 11.098779-48.119951 15.501042z m260.192997 34.524304C583.869353 746.242208 536.928251 793.772734 514.573103 793.772734c-19.563568 0-58.226123-36.726459-88.487333-132.252093 35.468816-12.153808 71.89954-26.897603 109.011786-44.646849a1193.31215 1193.31215 0 0 0 88.395236-46.568619c0.496304-0.279363 0.992607-0.558725 1.366114-0.86981-2.977821 16.680914-5.891174 33.470299-9.736759 49.282426z m23.997554-171.132612c-21.1149 14.261818-42.321898 27.967982-63.527872 40.308031-19.658735 11.471262-40.213887 22.261003-61.019749 32.770358-20.741393-10.509355-41.267892-21.299095-60.925604-32.770358-21.206998-12.341073-42.413995-26.046213-63.528896-40.308031-1.270946-22.073738-2.603291-44.151569-2.603291-66.72161 0-22.539342 1.332345-44.708248 2.603291-66.78608 21.1149-14.168698 42.321898-27.964912 63.528896-40.181141 19.656689-11.595083 40.184211-22.384823 60.925604-32.804127 20.805862 10.419304 41.361013 21.209044 61.019749 32.679284 21.205974 12.341073 42.412972 26.137287 63.527872 40.305984 1.239224 22.077831 2.512217 44.246737 2.512217 66.78608 0.001023 22.571065-1.272993 44.647873-2.512217 66.72161zM626.192274 193.09813499999996c16.308431-5.767354 32.398898-11.099802 48.117904-15.503088 116.641557-32.896224 176.416965-16.493649 186.835245 1.300622 9.146311 16.124236-2.51017 65.173348-64.98506 135.492904-25.361621-22.075785-53.019541-43.903929-82.81617-65.110927-28.709879-20.338211-58.039881-39.127136-87.151919-56.179511zM861.054349 582.829418c-8.992815 15.549138-55.437613 29.810956-144.050813 11.658527 7.131421-37.671994 13.113669-76.519768 16.21531-117.291356 2.294252-28.740578 3.382027-58.443064 3.565198-88.303139a813.913191 813.913191 0 0 1 28.339442 26.136264c89.853447 87.434352 106.535385 149.321864 95.930863 167.799704zM514.573103 317.36537c-35.004235 0-63.529919 28.431539-63.529918 63.498197 0 35.098379 28.525684 63.559595 63.529918 63.559594 35.097356 0 63.530942-28.461215 63.530942-63.559594-0.001023-35.066657-28.434609-63.498196-63.530942-63.498197z"  horiz-adv-x="1024" />

    
    <glyph glyph-name="travel" unicode="&#59063;" d="M1014.7328 307.96799999999996a26.624 26.624 0 0 1-10.4448 18.4832L632.2176 569.344c0 84.2752 0.1024 164.864 0.3072 218.4704C626.8416 862.5664 567.9616 896 512 896 421.9904 896 395.264 821.8624 393.6768 781.568v-212.3264l-370.176-240.896a26.624 26.624 0 0 1-10.3424-17.5104l-12.9024-89.7024a26.624 26.624 0 0 1 33.7408-29.3888l355.0208 81.2032c1.792 0.4608 3.1744 1.536 4.7616 2.3552v-176.0256l-142.4384-136.8064a26.4192 26.4192 0 0 1-8.1408-19.0976v-44.6976a26.624 26.624 0 0 1 35.8912-25.088l233.984 81.92 231.8848-81.92a27.0336 27.0336 0 0 1 24.576 3.328 26.624 26.624 0 0 1 11.4176 21.8112V-48.12800000000004a26.1632 26.1632 0 0 1-8.7552 19.6096l-160.7168 146.0224a27.2384 27.2384 0 0 1-38.0416-1.5872 26.5728 26.5728 0 0 1 1.5872-37.6832l152.064-137.984v-3.6864l-204.9024 72.3968a26.5728 26.5728 0 0 1-18.0224 0l-200.0896-70.0928 135.424 130.0992a26.4192 26.4192 0 0 1 8.1408 19.0976L447.488 780.3904c0.6144 10.3936 6.2976 62.3616 64.512 62.3616 14.592 0 62.6688-4.3008 66.6624-56.7808-0.7168-161.9968 0-578.4064 0-582.6048a26.7264 26.7264 0 0 1 26.9312-26.5216h0.0512c14.848 0 26.9312 11.8784 26.88 26.6752l-0.1024 71.5776 357.4272-83.4048a26.7776 26.7776 0 0 1 33.9968 28.3648l-9.1136 87.9104z m-639.8464 16.384l-315.5456-70.6048 5.5808 38.8096 328.7552 213.1456v-183.3984a26.368 26.368 0 0 1-18.7904 2.048z m271.2064 2.4064a26.4704 26.4704 0 0 1-13.7216-0.3584c-0.1024 51.9168-0.1536 114.7904-0.1536 179.3024l330.0864-214.5792 3.8912-37.6832-320.1024 73.3184z"  horiz-adv-x="1024" />

    
    <glyph glyph-name="quit" unicode="&#58938;" d="M138.299-68.567c-9.786 0-18.339 7.188-19.772 17.158-3.089 21.493-4.527 39.558-4.527 56.846 0 53.735 10.525 105.868 31.283 154.951 20.045 47.397 48.739 89.959 85.285 126.501 36.543 36.54 79.105 65.229 126.503 85.271 49.078 20.754 101.204 31.277 154.929 31.277 11.046 0 20-8.954 20-20.001 0-11.046-8.954-20-20-20-197.402 0-358-160.598-358-358 0-15.338 1.31-31.592 4.121-51.154 1.571-10.934-6.018-21.069-16.951-22.643-0.863-0.131-1.859-0.206-2.872-0.206zM512 363.436c-63.034 0-122.297 24.55-166.874 69.126-44.577 44.577-69.126 103.84-69.126 166.874 0 130.131 105.869 236 236 236 63.024 0 122.271-24.559 166.827-69.152 44.539-44.576 69.067-103.831 69.067-166.848 0-63.038-24.529-122.3-69.068-166.869-44.55-44.58-103.796-69.131-166.826-69.131zM512 795.436c-108.075 0-196-87.925-196-196s87.925-196 196-196c108.017 0 195.895 87.925 195.895 196s-87.878 196-195.895 196zM345.174 432.567c-44.539 44.568-69.068 103.831-69.068 166.869 0 63.017 24.528 122.272 69.067 166.848 44.556 44.593 103.803 69.152 166.827 69.152 130.131 0 236-105.869 236-236 0-63.034-24.549-122.297-69.126-166.875-44.577-44.576-103.84-69.126-166.874-69.126-63.030 0.001-122.276 24.552-166.826 69.132zM316.105 599.436c0-108.075 87.878-196 195.895-196 108.075 0 196 87.925 196 196s-87.925 196-196 196c-108.017 0-195.895-87.925-195.895-196zM667.035 372.16c-49.078 20.754-101.205 31.277-154.929 31.277-11.046 0-20-8.954-20-20.001 0-11.046 8.954-20 20-20 65.127 0 126.246-17.485 178.916-48.001l20.083 34.785c-42.102 24.756-91.468 42.331-144.122 49.612zM492.053 383.436c0-11.046 8.954-20 20-20s20 8.954 20 20c0 11.046-8.954 20-20 20-11.046 0-20-8.954-20-20zM681.059 332.819c0-11.046 8.954-20 20-20s20 8.954 20 20c0 11.046-8.954 20-20 20-11.046 0-20-8.954-20-20zM610 110.428h280v-40h-280zM590 90.428c0-11.046 8.954-20 20-20s20 8.954 20 20c0 11.046-8.954 20-20 20-11.046 0-20-8.954-20-20zM870 90.428c0-11.046 8.954-20 20-20s20 8.954 20 20c0 11.046-8.954 20-20 20-11.046 0-20-8.954-20-20zM875.857 104.58l28.285-28.284-98.995-98.995-28.284 28.285zM771.005-8.567c0-11.046 8.954-20 20-20s20 8.954 20 20c0 11.046-8.954 20-20 20-11.046 0-20-8.954-20-20zM870 90.428c0-11.046 8.954-20 20-20s20 8.954 20 20c0 11.046-8.954 20-20 20-11.046 0-20-8.954-20-20zM805.142 203.574l98.994-98.994-28.285-28.285-98.994 98.994zM771.005 189.422c0-11.046 8.954-20 20-20s20 8.954 20 20c0 11.046-8.954 20-20 20-11.046 0-20-8.954-20-20zM870 90.427c0-11.046 8.954-20 20-20s20 8.954 20 20c0 11.046-8.954 20-20 20-11.046 0-20-8.954-20-20z"  horiz-adv-x="1024" />

    
    <glyph glyph-name="xiazai" unicode="&#59088;" d="M839.852714 312.056064c-6.324742 17.028151-16.176743 32.475116-29.434375 46.219266-21.406818 23.109633-51.6926 37.94845-83.924456 41.23245 2.675852 20.433781 1.946074 41.35408-2.189334 63.977194-3.892149 22.258225-11.676446 43.665043-22.988003 63.490676-11.068298 19.339114-25.177337 36.853783-41.962228 51.93586-34.056301 30.650671-77.964604 49.989785-123.575722 54.246822-8.027557 0.851408-16.176743 1.337926-24.2043 1.337926-26.393633 0-52.179119-4.621927-76.626678-13.62252-24.2043-9.122224-46.705785-22.379855-66.531417-39.408006-21.406818-18.366077-38.678228-40.381043-51.084451-65.31512-11.919705-23.961041-18.974225-49.746526-20.9203-76.383419C222.582254 422.860672 171.619432 357.667181 175.025062 283.594726c1.581185-39.286376 19.582373-76.383418 50.597934-104.358237 30.89393-27.853189 70.788455-43.178525 112.507423-43.178525L591.484974 133.382112l115.426536 1.094667c35.880746 0 70.180306 12.771113 96.57394 36.002375 26.272004 23.231263 41.962228 54.490082 43.908302 87.938235 1.216296 18.609336-1.337926 36.732153-7.541038 53.638675zM613.378311 323.854139l-99.493051-96.573939c-2.675852-2.919112-6.568001-4.621927-10.946669-4.621927-4.257038 0-8.392446 1.581185-11.433187 4.621927L392.012353 323.854139c-3.162371 2.919112-4.865186 6.93289-4.865186 10.946669 0 4.135408 1.702815 7.905927 4.865186 10.946668 3.040741 2.919112 6.93289 4.621927 11.189928 4.621927 4.135408 0 8.027557-1.581185 11.189927-4.621927l70.910084-69.693788V417.265709c-0.12163 32.231857-0.12163 45.976007 0 47.678821l0.364889 3.040741h33.813042l-0.608148-3.892148c-0.364889-2.554223 0.12163-30.407412 0.12163-40.989191 0.12163-3.892149 0.12163-6.324742 0.121629-7.05452v-139.509205l71.274974 69.693788c2.919112 2.797482 6.689631 4.135408 11.554816 4.135408 4.013778 0 8.270816-1.824445 11.554817-4.986816 3.162371-2.919112 4.743556-6.93289 4.743556-10.946668 0-3.770519-1.824445-7.662668-4.865186-10.58178z"  horiz-adv-x="1024" />

    
    <glyph glyph-name="location" unicode="&#58900;" d="M511.932268 896c-213.943865 0-387.880498-170.933833-387.880499-381.06211 0-164.815346 238.869364-485.098975 341.66447-620.247558a58.249807 58.249807 0 0 1 46.216029-22.690332c18.129688 0 35.491743 8.443964 46.328916 22.690332 102.704796 135.126006 341.709624 455.432213 341.709624 620.247558C899.970808 725.066167 725.89871 896 511.932268 896z m0-519.574733c-91.393496 0-165.786176 72.902569-165.786176 162.670489 0 89.722765 74.39268 162.738221 165.786176 162.73822 91.438651 0 165.718443-73.015456 165.718443-162.73822 0-89.76792-74.279793-162.670488-165.718443-162.670489z"  horiz-adv-x="1024" />

    


  </font>
</defs>
</svg>
